<svg xmlns="http://www.w3.org/2000/svg" viewBox="0.09078946709632874 11.5 119.439208984375 43.95000076293945" data-asc="1.039" width="119.439208984375" height="43.95000076293945"><defs/><g fill="#000000"><g transform="translate(0, 0)"><path d="M0.15 46.95Q0.38 45.12 0.81 41.61Q1.25 38.10 1.78 34.15Q1.82 33.85 1.86 33.56Q1.90 33.27 1.94 32.97Q1.98 32.67 2 32.37Q2.05 31.95 2.11 31.55Q2.17 31.15 2.23 30.75Q2.28 30.22 2.35 29.71Q2.42 29.20 2.50 28.70Q2.58 28.15 2.64 27.62Q2.70 27.10 2.78 26.60Q2.85 26.10 2.93 25.60Q3 25.10 3.05 24.62Q3.28 22.97 3.46 21.62Q3.65 20.27 3.80 19.35Q4.15 17.17 5.16 16.16Q6.18 15.15 7.75 15.15Q9.38 15.15 10.31 16.26Q11.25 17.37 11.80 19.45Q11.88 19.67 11.95 19.91Q12.03 20.15 12.05 20.35Q8.95 20.90 7.89 21.52Q6.83 22.15 7.00 23.25Q7.20 24.37 8.65 24.31Q10.10 24.25 12.95 23.50Q13.18 24.20 13.38 24.99Q13.57 25.77 13.75 26.60Q10 27.05 8.47 27.61Q6.95 28.17 7.10 29.35Q7.30 30.62 8.99 30.59Q10.68 30.55 14.45 29.35Q15.10 32.02 15.70 34.64Q16.30 37.25 16.95 39.50Q17.32 40.75 18.05 40.75Q18.85 40.75 19.15 39.45Q19.73 37.05 20.35 34.05Q20.98 31.05 21.61 27.95Q22.25 24.85 22.85 22.15Q23.53 19.07 24.78 17.89Q26.03 16.70 27.90 16.70Q29.85 16.70 30.86 18.00Q31.88 19.30 32.20 21.90Q32.98 28.00 33.66 34.86Q34.35 41.72 34.90 48.60Q35.05 50.42 34.36 51.41Q33.68 52.40 32.25 52.40Q30.82 52.40 30.15 51.46Q29.48 50.52 29.45 48.80Q29.40 45.30 29.50 42.26Q29.60 39.22 29.50 36.05Q29.45 34.13 28.34 33.88Q27.23 33.63 26.30 35.05Q24.98 37.10 23.74 39.27Q22.50 41.45 20.95 43.80Q20.40 44.62 19.64 45.09Q18.88 45.55 17.85 45.55Q16.85 45.55 16.05 45.00Q15.25 44.45 14.50 43.50Q12.85 41.37 11.38 39.26Q9.90 37.15 8.70 35.70Q7.65 34.42 6.67 34.66Q5.70 34.90 5.65 36.55Q5.60 38.02 5.54 39.87Q5.48 41.72 5.39 43.69Q5.30 45.65 5.20 47.50Q5.13 49.15 4.50 50.00Q3.88 50.85 2.55 50.85Q1.60 50.85 1.03 50.41Q0.45 49.97 0.23 49.10Q0 48.22 0.15 46.95M27.15 29.30Q28.78 29.30 29.49 28.57Q30.20 27.85 30.20 26.65Q30.20 25.47 29.49 24.74Q28.78 24.00 27.35 24.00Q26.28 24.00 25.59 24.75Q24.90 25.50 24.90 26.75Q24.90 27.97 25.57 28.64Q26.25 29.30 27.15 29.30M18.05 43.90Q17.30 43.90 16.85 43.51Q16.40 43.12 16.40 42.35Q16.40 41.70 16.85 41.30Q17.30 40.90 18.05 40.90Q18.63 40.90 19.01 41.32Q19.40 41.75 19.40 42.25Q19.40 43.10 18.98 43.50Q18.55 43.90 18.05 43.90M33.15 48.80Q32.90 48.80 32.64 48.80Q32.38 48.80 32.10 48.80Q31.65 48.80 31.28 48.50Q30.90 48.20 30.90 47.20Q30.90 46.32 31.39 46.04Q31.88 45.75 32.20 45.75Q32.43 45.75 32.68 45.75Q32.93 45.75 33.15 45.75Q33.80 45.77 34.13 46.29Q34.45 46.80 34.45 47.40Q34.45 48.15 34.13 48.47Q33.80 48.80 33.15 48.80ZM38.03 47.05Q38.38 46.07 39.23 43.74Q40.08 41.40 41.18 38.36Q42.28 35.32 43.38 32.30Q43.48 32.07 43.55 31.85Q43.63 31.62 43.70 31.41Q43.78 31.20 43.85 30.97Q43.98 30.67 44.09 30.36Q44.20 30.05 44.30 29.75Q44.60 28.95 44.88 28.19Q45.15 27.42 45.40 26.72Q45.50 26.50 45.58 26.29Q45.65 26.07 45.73 25.86Q45.80 25.65 45.88 25.45Q46.00 25.07 46.14 24.74Q46.28 24.40 46.38 24.07Q46.78 23.02 47.01 22.39Q47.25 21.75 47.28 21.65Q48.08 19.57 49.68 18.56Q51.28 17.55 53.33 17.60Q55.48 17.62 57.03 18.72Q58.58 19.82 58.98 22.05Q59.03 22.35 59.09 22.65Q59.15 22.95 59.18 23.25Q56.18 23.55 55.13 24.04Q54.08 24.52 54.08 25.40Q54.08 26.47 54.81 26.79Q55.55 27.10 56.84 26.95Q58.13 26.80 59.78 26.50Q59.93 27.25 60.08 28.00Q60.23 28.75 60.33 29.50Q58.00 29.80 57.06 30.27Q56.13 30.75 56.13 31.70Q56.13 32.80 56.85 33.10Q57.58 33.40 58.68 33.24Q59.78 33.07 60.93 32.75Q61.43 35.25 61.90 37.75Q62.38 40.25 62.83 42.72Q63.28 45.20 63.73 47.66Q64.18 50.12 64.58 52.55Q64.85 53.92 64.28 54.69Q63.70 55.45 62.88 55.45Q62.25 55.45 61.60 54.97Q60.95 54.50 60.58 53.50Q58.55 47.90 56.55 41.94Q54.55 35.97 52.63 30.65Q52.10 29.17 51.59 28.51Q51.08 27.85 50.18 27.85Q49.33 27.85 48.76 28.45Q48.20 29.05 47.78 30.70Q46.63 35.15 45.50 39.75Q44.38 44.35 43.28 48.60Q42.90 49.97 42.10 50.59Q41.30 51.20 40.43 51.20Q38.83 51.20 38.13 49.99Q37.43 48.77 38.03 47.05M43.08 39.40L44.03 36.25Q45.20 36.20 46.34 36.20Q47.48 36.20 48.63 36.25Q50.35 36.32 51.21 36.67Q52.08 37.02 52.08 38.15Q52.08 39.22 51.33 39.61Q50.58 40.00 48.43 39.90Q47.08 39.82 45.74 39.69Q44.40 39.55 43.08 39.40M43.58 45.85Q42.43 45.70 41.73 45.22Q41.03 44.75 41.03 44.00Q41.03 42.82 41.94 42.52Q42.85 42.22 44.13 42.35Q47.40 42.60 50.99 42.94Q54.58 43.27 58.13 43.65L59.13 47.45Q54.93 47.07 50.94 46.66Q46.95 46.25 43.58 45.85M45.18 28.90Q43.50 28.20 42.49 27.66Q41.48 27.12 41.03 26.62Q40.58 26.12 40.58 25.55Q40.58 24.37 41.43 24.11Q42.28 23.85 43.66 24.21Q45.05 24.57 46.60 25.25L45.18 28.90M43.43 34.70Q41.45 34.15 40.29 33.72Q39.13 33.30 38.63 32.86Q38.13 32.42 38.13 31.85Q38.13 30.65 38.98 30.39Q39.83 30.12 41.24 30.46Q42.65 30.80 44.33 31.40L43.43 34.70M57.48 39.65L56.73 35.90Q58.00 35.67 58.79 35.69Q59.58 35.70 59.93 36.24Q60.28 36.77 60.28 38.10Q60.28 39.02 59.58 39.27Q58.88 39.52 57.48 39.65M59.28 47.65L58.53 43.65Q59.83 43.37 60.60 43.42Q61.38 43.47 61.73 44.07Q62.08 44.67 62.08 46.05Q62.08 47.05 61.38 47.31Q60.68 47.57 59.28 47.65ZM80.93 53.05Q78.38 53.05 76.64 51.75Q74.90 50.45 73.48 46.70Q72.25 43.55 71.04 40.24Q69.83 36.92 68.63 33.60Q71.68 33.07 72.78 32.44Q73.88 31.80 73.88 30.95Q73.88 29.75 72.33 29.51Q70.78 29.27 67.58 30.60Q67.25 29.80 66.95 28.95Q66.65 28.10 66.45 27.35Q69.80 26.75 70.91 26.14Q72.03 25.52 72.03 24.60Q72.03 23.70 71.26 23.36Q70.50 23.02 69.04 23.27Q67.58 23.52 65.43 24.40Q65.40 24.35 65.38 24.29Q65.35 24.22 65.31 24.15Q65.28 24.07 65.25 24.00Q65.23 23.92 65.20 23.85Q63.98 20.25 65.50 18.12Q67.03 16.00 70.63 16.00Q72.58 16.00 73.84 17.15Q75.10 18.30 75.48 20.70Q76.58 28.12 77.25 34.24Q77.93 40.35 78.78 46.25Q79.00 47.82 79.60 48.44Q80.20 49.05 81.18 49.05Q82.30 49.05 82.86 48.07Q83.43 47.10 83.73 45.45Q84.93 39.17 85.98 32.79Q87.03 26.40 88.18 20.15Q88.45 18.72 89.08 17.94Q89.70 17.15 90.78 17.15Q92.35 17.15 92.76 18.27Q93.18 19.40 92.83 21.10Q91.98 25.40 91.06 29.81Q90.15 34.22 89.18 38.65Q89.13 38.85 89.08 39.06Q89.03 39.27 88.98 39.49Q88.93 39.70 88.88 39.90Q88.78 40.35 88.66 40.80Q88.55 41.25 88.43 41.75Q88.33 42.22 88.21 42.71Q88.10 43.20 87.98 43.70Q87.93 43.90 87.88 44.09Q87.83 44.27 87.78 44.46Q87.73 44.65 87.68 44.85Q87.60 45.22 87.50 45.60Q87.40 45.97 87.33 46.35Q87.25 46.65 87.18 46.95Q87.10 47.25 87.03 47.55Q86.60 49.27 85.86 50.50Q85.13 51.72 83.93 52.39Q82.73 53.05 80.93 53.05M81.63 26.85Q80.48 26.85 79.63 25.95Q78.78 25.05 78.78 23.70Q78.78 22.22 79.69 21.29Q80.60 20.35 81.73 20.35Q83.45 20.35 84.36 21.27Q85.28 22.20 85.28 23.70Q85.28 25.27 84.43 26.06Q83.58 26.85 81.63 26.85M91.13 32.95Q92.85 32.88 93.66 33.15Q94.48 33.42 94.48 34.45Q94.48 35.20 94.13 35.56Q93.78 35.92 92.98 36.10Q92.18 36.27 90.83 36.45Q89.30 36.62 87.76 36.75Q86.23 36.87 84.68 36.95Q82.50 37.05 81.51 36.71Q80.53 36.37 80.53 35.30Q80.53 34.27 81.48 33.90Q82.43 33.52 84.48 33.35Q86.13 33.20 87.80 33.11Q89.48 33.02 91.13 32.95M71.68 17.90Q72.25 17.80 72.71 17.84Q73.18 17.87 73.45 18.15Q73.73 18.42 73.73 19.00Q73.73 19.85 73.50 20.21Q73.28 20.57 72.53 20.80Q71.78 21.02 71.10 21.20Q70.43 21.37 69.78 21.50Q69.15 21.60 68.59 21.14Q68.03 20.67 68.03 19.90Q68.03 19.22 68.26 18.97Q68.50 18.72 69.28 18.50Q69.88 18.30 70.48 18.15Q71.08 18.00 71.68 17.90M70.28 16.60Q70.73 16.60 70.95 16.97Q71.18 17.35 71.18 17.80Q71.18 18.32 70.99 18.69Q70.80 19.05 70.28 19.10Q70.13 19.10 69.95 19.10Q69.78 19.10 69.63 19.10Q69.10 19.10 68.91 18.84Q68.73 18.57 68.73 17.80Q68.73 17.20 68.91 16.91Q69.10 16.62 69.63 16.60Q69.78 16.60 69.95 16.60Q70.13 16.60 70.28 16.60ZM109.48 52.55Q105.90 52.55 103.08 50.84Q100.25 49.12 98.61 45.49Q96.98 41.85 96.98 36.05Q96.98 29.95 98.98 25.55Q100.98 21.15 104.43 18.77Q107.88 16.40 112.18 16.40Q114.18 16.40 115.85 16.91Q117.53 17.42 118.53 18.32Q119.53 19.22 119.53 20.35Q119.53 21.17 119.09 21.54Q118.65 21.90 118.08 21.90Q117.53 21.90 117.10 21.71Q116.68 21.52 116.38 21.35Q116.23 21.25 116.09 21.19Q115.95 21.12 115.81 21.05Q115.68 20.97 115.55 20.92Q115.35 20.82 115.15 20.74Q114.95 20.65 114.78 20.59Q114.60 20.52 114.40 20.47Q114.13 20.40 113.84 20.34Q113.55 20.27 113.28 20.25Q113.08 20.22 112.84 20.22Q112.60 20.22 112.35 20.21Q112.10 20.20 111.83 20.20Q111.63 20.20 111.41 20.21Q111.20 20.22 110.99 20.24Q110.78 20.25 110.55 20.27Q107.73 20.62 105.69 22.64Q103.65 24.65 102.56 27.71Q101.48 30.77 101.48 34.35Q101.48 36.12 101.86 37.42Q102.25 38.72 102.86 39.55Q103.48 40.37 104.13 40.70Q104.43 40.85 104.61 40.91Q104.80 40.97 105.03 41.05Q104.80 44.27 105.23 45.32Q105.65 46.37 106.58 46.35Q107.30 46.30 107.73 45.39Q108.15 44.47 108.23 41.45Q108.83 41.45 109.59 41.32Q110.35 41.20 110.98 41.10Q110.90 44.12 111.09 45.56Q111.28 47.00 111.68 47.42Q112.08 47.85 112.68 47.85Q113.40 47.85 113.79 47.29Q114.18 46.72 114.18 45.12Q114.18 43.52 113.73 40.40Q114.15 40.25 114.58 40.17Q115.00 40.10 115.53 40.10Q117.23 40.10 118.13 41.61Q119.03 43.12 119.03 45.05Q119.03 46.92 118.28 48.34Q117.53 49.75 116.21 50.69Q114.90 51.62 113.16 52.09Q111.43 52.55 109.48 52.55M112.23 13.85Q112.60 16.25 113.00 19.05Q113.40 21.85 113.73 24.40Q113.85 25.20 113.70 25.76Q113.55 26.32 113.14 26.62Q112.73 26.92 112.03 26.92Q111.25 26.92 110.84 26.35Q110.43 25.77 110.18 24.80Q109.65 22.42 109.09 19.67Q108.53 16.92 108.08 14.60Q107.90 13.60 108.08 12.91Q108.25 12.22 108.79 11.86Q109.33 11.50 110.23 11.50Q110.98 11.50 111.49 12.00Q112.00 12.50 112.23 13.85M103.23 17.60Q103.73 18.20 104.21 18.82Q104.70 19.45 105.18 20.25Q105.63 20.95 105.61 21.60Q105.60 22.25 105.08 22.75Q104.48 23.37 103.83 23.32Q103.18 23.27 102.53 22.65Q101.75 21.90 101.16 21.25Q100.58 20.60 100.13 20.00Q99.20 18.72 99.06 17.92Q98.93 17.12 99.68 16.45Q100.35 15.80 101.33 16.17Q102.30 16.55 103.23 17.60M109.08 35.45Q107.63 35.45 106.85 34.66Q106.08 33.88 106.08 32.75Q106.08 31.25 106.78 30.55Q107.48 29.85 108.63 29.85Q110.10 29.85 110.89 30.61Q111.68 31.37 111.68 32.70Q111.68 34 111.01 34.72Q110.35 35.45 109.08 35.45M116.43 48.80Q116.48 48.87 116.51 48.92Q116.55 48.97 116.58 49.05Q116.88 49.52 116.28 49.89Q115.68 50.25 115.15 50.25Q114.98 50.25 114.80 50.19Q114.63 50.12 114.53 50.00Q114.45 49.87 114.39 49.79Q114.33 49.70 114.28 49.60L116.43 48.80M110.28 49.45Q110.28 49.55 110.30 49.66Q110.33 49.77 110.33 49.90Q110.40 50.42 109.75 50.76Q109.10 51.10 108.40 51.10Q107.83 51.10 107.35 50.89Q106.88 50.67 106.83 50.12Q106.83 49.97 106.83 49.84Q106.83 49.70 106.83 49.55Q106.80 48.95 107.39 48.65Q107.98 48.35 108.53 48.35Q109.15 48.35 109.68 48.60Q110.20 48.85 110.28 49.45Z"/></g></g></svg>